<svg width="27" height="32" viewBox="0 0 27 32" fill="none" xmlns="http://www.w3.org/2000/svg">
<path d="M18.4761 25.9991C21.1942 25.9991 22.5532 25.9991 23.506 24.9964C23.8137 24.6726 24.0842 24.2806 24.3078 23.8349C25 22.4549 25 20.4863 25 16.5491V13.1998C25 11.7488 25.2053 1.76937 25 1.13442C24.7947 0.499471 24.2046 9.28895 23.4351 8.36003L21.8433 6.4386C21.2617 5.73657 20.9709 5.38556 20.6237 5.19789C20.2632 5.003 19.8845 4.99906 19.0983 4.99906C15.7809 4.99906 14.1222 4.99906 13.0713 6.45513C13.0325 6.50892 12.9945 6.56396 12.9573 6.6202C12.3165 7.59063 12.0842 8.9188 12 10.9991" stroke="#4747A1" stroke-width="2"/>
<g clip-path="url(#clip0_10529_8751)">
<path d="M5 17C5 13.7002 5 12.0503 6.02513 11.0251C7.05025 10 8.70017 10 12 10C15.2998 10 16.9497 10 17.9749 11.0251C19 12.0503 19 13.7002 19 17V23C19 26.2998 19 27.9497 17.9749 28.9749C16.9497 30 15.2998 30 12 30C8.70017 30 7.05025 30 6.02513 28.9749C5 27.9497 5 26.2998 5 23V17Z" stroke="#4747A1" stroke-width="2" stroke-linecap="round"/>
<path d="M11 27H13" stroke="#4747A1" stroke-width="2" stroke-linecap="round" stroke-linejoin="round"/>
<path d="M9 10L9.089 10.534C9.28188 11.6913 9.37832 12.2699 9.77519 12.622C10.1892 12.9893 10.7761 13 12 13C13.2239 13 13.8108 12.9893 14.2248 12.622C14.6217 12.2699 14.7181 11.6913 14.911 10.534L15 10" stroke="#4747A1" stroke-width="2" stroke-linejoin="round"/>
</g>
<defs>
<clipPath id="clip0_10529_8751">
<rect width="24" height="24" fill="white" transform="translate(0 8)"/>
</clipPath>
</defs>
</svg>
