<svg width="90" height="90" viewBox="0 0 90 90" fill="none" xmlns="http://www.w3.org/2000/svg">
<path d="M7.5 29.9478C7.91077 21.6594 9.1396 16.4918 12.8157 12.8157C16.4918 9.13961 21.6594 7.91077 29.9478 7.5M82.5 29.9478C82.0892 21.6594 80.8604 16.4918 77.1843 12.8157C73.5082 9.1396 68.3406 7.91077 60.0522 7.5M60.0522 82.5C68.3406 82.0892 73.5082 80.8604 77.1843 77.1843C80.8604 73.5082 82.0892 68.3406 82.5 60.0522M29.9478 82.5C21.6594 82.0892 16.4918 80.8604 12.8157 77.1843C9.13961 73.5082 7.91077 68.3406 7.5 60.0522" stroke="#04B135" stroke-width="3" stroke-linecap="round" stroke-linejoin="round"/>
<path d="M61.9299 33.534C63.119 35.6921 63.7501 38.0684 63.75 40.4966V51.3023C63.75 55.5565 61.7404 59.7476 58.2583 62.7558C54.7761 65.764 49.9246 67.5 45 67.5M26.25 42.2937V51.3033C26.2481 56.0225 28.7015 60.6633 33.0038 63.7574M54.3751 24.6701C50.0686 22.5222 44.9509 21.9401 40.1476 23.0519C35.3444 24.1637 31.2491 26.8782 28.7626 30.5984M51.2495 43.0434V39.7168C51.2868 37.3299 49.2498 35.1811 46.4817 34.6154M38.7508 44.4626V50.1768C38.7305 51.229 39.0995 52.2612 39.8084 53.1354C42.0211 55.8638 46.9716 56.1757 49.6498 53.7099" stroke="#04B135" stroke-width="3" stroke-linecap="round" stroke-linejoin="round"/>
</svg>
