<svg width="64" height="64" viewBox="0 0 64 64" fill="none" xmlns="http://www.w3.org/2000/svg">
<path d="M8 32C20 32 32 20 32 8C32 20 44 32 56 32C44 32 32 44 32 56C32 44 20 32 8 32Z" stroke="#04B135" stroke-width="1.5" stroke-linejoin="round"/>
<path d="M5.33594 52.0026C7.55816 52.0026 12.0026 47.5582 12.0026 45.3359C12.0026 47.5582 16.447 52.0026 18.6693 52.0026C16.447 52.0026 12.0026 56.4471 12.0026 58.6693C12.0026 56.4471 7.55816 52.0026 5.33594 52.0026Z" stroke="#04B135" stroke-width="1.5" stroke-linejoin="round"/>
<path d="M42.6719 13.3359C45.3385 13.3359 50.6719 8.0026 50.6719 5.33594C50.6719 8.0026 56.0052 13.3359 58.6719 13.3359C56.0052 13.3359 50.6719 18.6693 50.6719 21.3359C50.6719 18.6693 45.3385 13.3359 42.6719 13.3359Z" stroke="#04B135" stroke-width="1.5" stroke-linejoin="round"/>
</svg>
