<svg width="18" height="18" viewBox="0 0 18 18" fill="none" xmlns="http://www.w3.org/2000/svg">
<path fill-rule="evenodd" clip-rule="evenodd" d="M16 8H10V2C10 1.447 9.552 1 9 1C8.448 1 8 1.447 8 2V8H2C1.448 8 1 8.447 1 9C1 9.553 1.448 10 2 10H8V16C8 16.553 8.448 17 9 17C9.552 17 10 16.553 10 16V10H16C16.552 10 17 9.553 17 9C17 8.447 16.552 8 16 8" fill="#4747A1"/>
<path d="M16 8H10V2C10 1.447 9.552 1 9 1C8.448 1 8 1.447 8 2V8H2C1.448 8 1 8.447 1 9C1 9.553 1.448 10 2 10H8V16C8 16.553 8.448 17 9 17C9.552 17 10 16.553 10 16V10H16C16.552 10 17 9.553 17 9C17 8.447 16.552 8 16 8" stroke="#4747A1" stroke-width="0.5"/>
</svg>
