<svg width="14" height="14" viewBox="0 0 14 14" fill="none" xmlns="http://www.w3.org/2000/svg">
<g clip-path="url(#clip0_6122_7455)">
<path d="M12.2474 2.33333H10.4391C10.3037 1.67499 9.94546 1.08345 9.42479 0.658419C8.90413 0.233386 8.25285 0.000848473 7.58073 0L6.41406 0C5.74194 0.000848473 5.09067 0.233386 4.57 0.658419C4.04933 1.08345 3.69112 1.67499 3.55573 2.33333H1.7474C1.59269 2.33333 1.44431 2.39479 1.33492 2.50419C1.22552 2.61358 1.16406 2.76196 1.16406 2.91667C1.16406 3.07138 1.22552 3.21975 1.33492 3.32915C1.44431 3.43854 1.59269 3.5 1.7474 3.5H2.33073V11.0833C2.33166 11.8566 2.63924 12.5979 3.18602 13.1447C3.7328 13.6915 4.47413 13.9991 5.2474 14H8.7474C9.52066 13.9991 10.262 13.6915 10.8088 13.1447C11.3555 12.5979 11.6631 11.8566 11.6641 11.0833V3.5H12.2474C12.4021 3.5 12.5505 3.43854 12.6599 3.32915C12.7693 3.21975 12.8307 3.07138 12.8307 2.91667C12.8307 2.76196 12.7693 2.61358 12.6599 2.50419C12.5505 2.39479 12.4021 2.33333 12.2474 2.33333ZM6.41406 1.16667H7.58073C7.94256 1.16711 8.29539 1.27947 8.59084 1.48834C8.88629 1.69721 9.10989 1.99237 9.23098 2.33333H4.76381C4.8849 1.99237 5.1085 1.69721 5.40395 1.48834C5.69941 1.27947 6.05224 1.16711 6.41406 1.16667ZM10.4974 11.0833C10.4974 11.5475 10.313 11.9926 9.98483 12.3208C9.65664 12.649 9.21152 12.8333 8.7474 12.8333H5.2474C4.78327 12.8333 4.33815 12.649 4.00996 12.3208C3.68177 11.9926 3.4974 11.5475 3.4974 11.0833V3.5H10.4974V11.0833Z" fill="#DC2626"/>
<path d="M5.83333 10.4987C5.98804 10.4987 6.13641 10.4372 6.24581 10.3278C6.35521 10.2184 6.41666 10.0701 6.41666 9.91536V6.41536C6.41666 6.26065 6.35521 6.11228 6.24581 6.00289C6.13641 5.89349 5.98804 5.83203 5.83333 5.83203C5.67862 5.83203 5.53025 5.89349 5.42085 6.00289C5.31146 6.11228 5.25 6.26065 5.25 6.41536V9.91536C5.25 10.0701 5.31146 10.2184 5.42085 10.3278C5.53025 10.4372 5.67862 10.4987 5.83333 10.4987Z" fill="#DC2626"/>
<path d="M8.16927 10.4987C8.32398 10.4987 8.47236 10.4372 8.58176 10.3278C8.69115 10.2184 8.75261 10.0701 8.75261 9.91536V6.41536C8.75261 6.26065 8.69115 6.11228 8.58176 6.00289C8.47236 5.89349 8.32398 5.83203 8.16927 5.83203C8.01456 5.83203 7.86619 5.89349 7.75679 6.00289C7.6474 6.11228 7.58594 6.26065 7.58594 6.41536V9.91536C7.58594 10.0701 7.6474 10.2184 7.75679 10.3278C7.86619 10.4372 8.01456 10.4987 8.16927 10.4987Z" fill="#DC2626"/>
</g>
<defs>
<clipPath id="clip0_6122_7455">
<rect width="14" height="14" fill="white"/>
</clipPath>
</defs>
</svg>
