<svg width="20" height="20" viewBox="0 0 20 20" fill="none" xmlns="http://www.w3.org/2000/svg">
<circle cx="10" cy="10" r="9.43333" fill="#FFBF1F" fill-opacity="0.2" stroke="#FFBF1F" stroke-width="1.13333"/>
<path d="M9.88954 7.77713H10.1118C10.4186 7.77713 10.6673 7.5284 10.6673 7.22157C10.6673 6.91475 10.4186 6.66602 10.1118 6.66602H9.88954C9.58272 6.66602 9.33398 6.91475 9.33398 7.22157C9.33398 7.5284 9.58272 7.77713 9.88954 7.77713Z" fill="#FFBF1F"/>
<path d="M9.33398 9.5549V12.666C9.33398 13.0342 9.63246 13.3327 10.0007 13.3327C10.3688 13.3327 10.6673 13.0342 10.6673 12.666V9.5549C10.6673 9.18671 10.3688 8.88824 10.0007 8.88824C9.63246 8.88824 9.33398 9.18671 9.33398 9.5549Z" fill="#FFBF1F"/>
</svg>
